<svg width="109" height="73" viewBox="0 0 109 73" fill="none" xmlns="http://www.w3.org/2000/svg">
<path d="M66 12C66 16.2039 61.5411 20 55.5 20C49.4589 20 45 16.2039 45 12C45 7.79612 49.4589 4 55.5 4C61.5411 4 66 7.79612 66 12Z" fill="#446491" stroke="#446491" stroke-width="2"/>
<path d="M23 7L90 21" stroke="#446491" stroke-width="4"/>
<path d="M26.0674 36.5C26.0674 42.6489 20.9036 47.6336 14.5337 47.6336C8.1638 47.6336 3 42.6489 3 36.5C3 30.3511 8.1638 36.5 14.5337 36.5C20.9036 36.5 26.0674 30.3511 26.0674 36.5Z" fill="#446491"/>
<path d="M100.534 48.4501C100.534 54.599 95.3699 59.5836 89 59.5836C82.6301 59.5836 77.4663 54.599 77.4663 48.4501C77.4663 42.3012 82.6301 48.4501 89 48.4501C95.3699 48.4501 100.534 42.3012 100.534 48.4501Z" fill="#446491"/>
<path d="M55.5 13L53 65" stroke="#446491" stroke-width="9"/>
<path d="M79 48L90 22L98 48" stroke="#446491" stroke-width="2"/>
<path d="M5 35.6154L23 8.5V37" stroke="#446491" stroke-width="2"/>
<path d="M29 65.5H72.5" stroke="#446491" stroke-width="6"/>
<path d="M38 60L64 60" stroke="#446491" stroke-width="6"/>
</svg>
